PathFileType	4	(X/Y/Z)	38_2_86_p0_0-322.trc
DataRate	CameraRate	NumFrames	NumMarkers	Units	OrigDataRate	OrigDataStartFrame	OrigNumFrames
41.0	41.0	7	27	m	41.0	242	323
Frame#	Time	RHip			RKnee			RAnkle			RBigToe			RSmallToe			RHeel			LHip			LKnee			LAnkle			LBigToe			LSmallToe			LHeel			Neck			Head			Nose			RShoulder			RElbow			RWrist			RThumb			RIndex			RPinky			LShoulder			LElbow			LWrist			LThumb			LIndex			LPinky			
		X1	Y1	Z1	X2	Y2	Z2	X3	Y3	Z3	X4	Y4	Z4	X5	Y5	Z5	X6	Y6	Z6	X7	Y7	Z7	X8	Y8	Z8	X9	Y9	Z9	X10	Y10	Z10	X11	Y11	Z11	X12	Y12	Z12	X13	Y13	Z13	X14	Y14	Z14	X15	Y15	Z15	X16	Y16	Z16	X17	Y17	Z17	X18	Y18	Z18	X19	Y19	Z19	X20	Y20	Z20	X21	Y21	Z21	X22	Y22	Z22	X23	Y23	Z23	X24	Y24	Z24	X25	Y25	Z25	X26	Y26	Z26	X27	Y27	Z27	
242	5.902439024390244	0.39677132389697434	0.7328410815190671	0.537231205970034	0.39759059300068683	0.9072892419727402	0.9489370636373904	0.3543674381983282	1.1184358209797198	1.3809385148796884	0.3075860090871876	0.8605215405479707	1.4233610512724393	0.37861642111928	0.9031680520940291	1.4372857523516325	0.3454405226171055	1.1852372021649216	1.4217650458460478	0.17586210552607176	0.760324086592101	0.5209868402472929	0.17778153316260364	0.9433654822804126	0.953789216931903	0.18314513110985395	1.0829227240273656	1.3384261961321975	0.16529378837845407	0.8834315702225869	1.4073272021167054	0.11499071662997731	0.9357337932367805	1.4105871416554119	0.20618491228114422	1.1661980806455583	1.4151082890523448	0.29828022539691873	0.564438151488199	-0.0786212749076593	0.30464472879778104	0.42100500617326087	-0.3142927394503107	0.2923026883383437	0.4100233266769948	-0.15965398285593113	0.4675021535801481	0.6267597496443722	0.015167193167728637	0.5609353820245555	0.7404384136931442	0.2745396385521798	0.47489902303367115	0.6017830559792892	0.48474373927158004	0.3720164859296455	0.5307280431568967	0.5619559151269341	0.38577781803222644	0.5154224745553185	0.5885769475344883	0.4413400019460979	0.5887869431146241	0.5921680342640693	0.1279633992131877	0.6571342437998127	-0.00521436953177222	0.06610914461706917	0.7527727000940365	0.2589363430032762	0.05423064692992215	0.7565673779499252	0.5307095325098123	0.09507646713620417	0.732121772828312	0.6436993404865008	0.06617901214210728	0.7450152070130097	0.6854557273104445	0.03875370338344849	0.8158496271109059	0.6673331573113038
243	5.926829268292683	0.4042491757512143	0.7287709275190285	0.5335440247465042	0.39757596912397386	0.907153049486037	0.9487854622925042	0.3544275043802844	1.1186398516829037	1.381072337840276	0.30742374854834636	0.8599855550147553	1.4232983715647431	0.3784958533705737	0.9029374648472765	1.4372875184577718	0.3463440341879657	1.183630068419742	1.4173532930913253	0.1757748976981467	0.7600889337798211	0.5209165455853502	0.17789235267729545	0.9430421990968628	0.9537065585330363	0.18327872287371036	1.0832302083930396	1.338636020758809	0.16620414728046218	0.8865322526395056	1.412152131540814	0.11504979563830618	0.9358684342352637	1.4107208110063407	0.20620815740023105	1.1661722181724306	1.4149000712546311	0.29832336344143345	0.5646308966715052	-0.07853164797092763	0.30709317356190036	0.4092700468492736	-0.31088670445528965	0.29249503371338587	0.4099706000187082	-0.15901991337863322	0.46749436711385856	0.6270525302140566	0.015182660057702933	0.5609350140153783	0.7405657742377633	0.2745205965484541	0.47489573338567226	0.6017894022968803	0.4847323649733878	0.37205472889251945	0.5307254059444554	0.5619555627121798	0.3858285483513261	0.5154862552824554	0.5885959850245198	0.44121884022799623	0.5889007951796232	0.591892323613062	0.12793942783986406	0.6572479353578283	-0.005249251569295804	0.0661602196201671	0.7530037255867494	0.2589377189086571	0.054234300453145076	0.7565781065369308	0.530661547651779	0.09175340510233689	0.7303803804324488	0.6398632513639287	0.06612314578030427	0.7452753900713339	0.6852451070573942	0.03886205521395207	0.8155337542781814	0.6671193428236656
244	5.951219512195122	0.40162820240684804	0.7419132748266811	0.5298705658282934	0.39750146445017714	0.9069349544064542	0.9487007860216774	0.34941663204556506	1.116758547617152	1.3803407482835384	0.30741780652014333	0.8599628414265249	1.4233026186492435	0.37849193432971245	0.9028327613913718	1.4372296457406188	0.3463398174394627	1.18358737791531	1.4172849902720708	0.17592128445786104	0.760738124672518	0.5210071024397922	0.1778501829162601	0.9432285229865218	0.9537501126618515	0.18312753290374503	1.0826656437982671	1.3381763936853237	0.1652668690208948	0.8834673980619504	1.4072609065503634	0.11503258984506556	0.9358245070258984	1.4106683835809666	0.20511508749258822	1.1630145018717049	1.410826519272024	0.292459668693347	0.5773757724614264	-0.07697269424289133	0.30701557433059745	0.4088927178228769	-0.3108042361138388	0.29860744513390863	0.40017727716255613	-0.1465731396677539	0.4674862222758022	0.6276129683879602	0.015275997470353872	0.5606825407959595	0.7408744151850072	0.27054320158825573	0.46915166235036576	0.5903142138493324	0.48455832291526013	0.36980255677770846	0.5439027834695942	0.5627935801038323	0.38080773409707575	0.5045100451872784	0.5879487208339734	0.4378848572200807	0.5902139517988128	0.5952143455531227	0.12789913644544437	0.6572053003100892	-0.005114210099437757	0.06587746233950162	0.7533617951442894	0.2627169971416711	0.05417623027740699	0.7567474296858713	0.5306973977681144	0.09108094784859745	0.7311956985176259	0.6436975341449015	0.06607894308056671	0.7454487349204827	0.6852718738241393	0.03816941384467627	0.8170103413952363	0.6707998760425546
245	5.975609756097561	0.392042851089755	0.7290537714627368	0.5294934476537859	0.3973863815092037	0.906676688640141	0.9484679735320765	0.3494008227045449	1.1166616424437055	1.3803420548835914	0.31251099419815714	0.8735995921836551	1.4275761627273353	0.37863454839394245	0.9032120434461329	1.4373072135988638	0.34540674860464515	1.1851991930453711	1.4217660632957954	0.17572450512752658	0.7607034509574	0.5209629685958485	0.17772962846780302	0.9437052709168124	0.9538637072479618	0.18306171158450255	1.082856982714628	1.338273890891119	0.16958967885071474	0.8981616208011781	1.4117510894159122	0.11510274135496372	0.9358260514850659	1.4106570218685583	0.2048433525066625	1.1631356650357705	1.4113858134967296	0.294601493265026	0.5649953053069819	-0.07130305069045557	0.307242837895079	0.41106814493713983	-0.3013168088806475	0.2964322413702895	0.4123834128575672	-0.1457443818766304	0.4726048514957389	0.6383741966068038	0.00993885033048415	0.5606917072475726	0.7408077414466294	0.27047547801924765	0.4733737224977606	0.6161610242751925	0.48484174012987385	0.3697832231467861	0.5447400725082354	0.5628506393065337	0.3808027806622592	0.5049329378130755	0.5880312120664032	0.4357780503945834	0.6051759492389323	0.5927438303860614	0.12794377143114968	0.6571444487044252	-0.005146281584106397	0.06628749680738888	0.7528252577859967	0.25907667300260906	0.05779967177189222	0.7421764463017603	0.5303667070335387	0.09105015425876278	0.7312355065312943	0.6438024417192024	0.06606615968563806	0.7457656297948358	0.6853859987489942	0.03886812011228509	0.8156021009232965	0.6671395824456041
246	6.0	0.3978243997367012	0.7149359128761371	0.532705095162476	0.3972514454637104	0.9064713785472859	0.9483982295979304	0.35443686422997905	1.1185175140128991	1.381039620421471	0.3075512728372049	0.8606622314611396	1.4234374011768798	0.37859998318918764	0.9035637176071334	1.4374432964088213	0.34537698061728705	1.185119649154392	1.4217204112883322	0.17588314109767164	0.7605353517680518	0.5210218396759841	0.17790165606529318	0.9427032604573461	0.9535713290625073	0.18315652323840595	1.0832971156167555	1.3385760078261302	0.16525074204368329	0.8833313352340816	1.4073255917291898	0.1150433284423849	0.9359549428635066	1.410811653378524	0.2060440068856421	1.1664448072220985	1.4152984309567882	0.29496464514043014	0.5668484762821843	-0.06784715403452618	0.3071481560507132	0.41100709735133045	-0.3012603009136326	0.29666995192347356	0.41289807472277834	-0.14263168133657372	0.4673622408939153	0.6269034270718331	0.011604937525312175	0.560707297234642	0.7407170179671065	0.2704882244141568	0.47324016798969826	0.6158944327909984	0.48475395461591575	0.3698817672133203	0.5450645584665865	0.5627049837530448	0.3791272310735563	0.5181227737090536	0.5887416867431777	0.4309658978080372	0.6029522719938031	0.5888092043249107	0.12791876396453816	0.6571521943530896	-0.00507989925368204	0.06590963517352996	0.7532886166957858	0.26277174085249755	0.057789586829361375	0.7422110910224367	0.5303792182938074	0.09108600608932806	0.7312988752707588	0.6438076004035296	0.06616248224640975	0.7459514678833941	0.6854873553304901	0.03938938119458096	0.8184499103982176	0.6712487611740842
247	6.024390243902439	0.3915922307173694	0.730009029714707	0.5330448434012396	0.3972433285316728	0.906860827314487	0.9488173547445686	0.349348698028727	1.1166480000827588	1.3803884120641605	0.30760159169097695	0.8608437947137144	1.4234253274065383	0.3784309324871037	0.9035037169096674	1.4374652632511928	0.3454026877007783	1.1852122871221462	1.4217841083108842	0.17594181745813608	0.760732539050817	0.5209659762508825	0.17774060702788708	0.943630590311206	0.9538740223964761	0.1830333902965015	1.0829262223972798	1.3383728865556475	0.16526850829883485	0.8833608709185795	1.4071942300633378	0.115062263782683	0.9359263159335416	1.4107956911347044	0.20600532472786567	1.1663989509899728	1.4154649824125647	0.29021234677086166	0.5553001197406273	-0.06564539209670404	0.3068930517695118	0.41069784855171776	-0.3012741410242754	0.29336173963729356	0.4141940189321632	-0.13611228622790206	0.4675430371243719	0.6269894850452293	0.01532271121714689	0.5594758249217575	0.7568198637732162	0.2696797552363994	0.4674288469497428	0.6041722995324853	0.4846202564882616	0.3676488410343455	0.5581045963202447	0.5634006800200239	0.3787432054328112	0.5174657664715175	0.5885532885065933	0.4288476076165822	0.6174082076892241	0.5928874292303694	0.1279352871904244	0.657143918654614	-0.005083971465604062	0.06644155323581492	0.7528385904447141	0.2591036825595951	0.057819697949329736	0.7423596014630135	0.5302079209822592	0.09046056234274778	0.7288952617924866	0.639466599062977	0.06596820910053028	0.7454986631580058	0.6849310474707052	0.041694104824465734	0.8303684333667459	0.6718219020849491
248	6.048780487804878	0.3915844924300505	0.7302100197462157	0.5330113073875549	0.3973572120870181	0.9071610700271605	0.9488992339492502	0.35054302589313246	1.120120918377452	1.3854051547978703	0.30768958285664155	0.8611079224199896	1.4235307747938306	0.3786420430657838	0.903744425019929	1.4374822897419117	0.34538137337163466	1.185259127713138	1.4218350827084134	0.17280602404937323	0.7759422004848137	0.5213581295509657	0.177854748952342	0.9439584307615149	0.9539982205236025	0.18315846460073643	1.0834196161567027	1.3387164453592362	0.16525607408886842	0.8832017885422014	1.40714918583943	0.11511035705356866	0.9358909560171368	1.4107638782017164	0.20600931748346568	1.1666619503216589	1.4158396949649925	0.2879880394134968	0.5678813122762407	-0.06776938369853003	0.3069366469047501	0.41085591801650956	-0.30123199189198907	0.2929660430958479	0.4124833640648419	-0.13890658711145754	0.46750166883711025	0.6270974062099774	0.015292000553540828	0.5594143920056597	0.7568731136924577	0.26971759494551173	0.4673138223486277	0.6040974592162002	0.48459371113777544	0.36735801623113357	0.5585643459085579	0.5635752749837075	0.37459384753965475	0.518189013316418	0.584843977989798	0.4253670976434053	0.6188783805866248	0.5971467334364131	0.12790387113433935	0.6570825959685314	-0.00509213655414582	0.06649792186763463	0.7527006875729787	0.25912835187206545	0.0541924309341594	0.7569567978585954	0.5305816313886398	0.09056865461796444	0.7291793437707702	0.6394829034463737	0.06614903464882585	0.7458133689974036	0.6851056562920432	0.04170797375055082	0.830695810908205	0.671847059130443
